<?xml version="1.0" encoding="utf-8"?>
<!-- Generator: Adobe Illustrator 26.0.0, SVG Export Plug-In . SVG Version: 6.00 Build 0)  -->
<svg version="1.1" id="Layer_1" xmlns="http://www.w3.org/2000/svg" xmlns:xlink="http://www.w3.org/1999/xlink" x="0px" y="0px"
	 viewBox="0 0 640 480" style="enable-background:new 0 0 640 480;" xml:space="preserve">
<style type="text/css">
	.st0{fill:#364FC7;}
</style>
<g>
	<g>
		<polygon class="st0" points="121.91,451.79 300.14,101.45 240.95,101.45 62.72,451.79 		"/>
	</g>
	<g>
		<path class="st0" d="M365.23,267.96h22.61l-85.49-166.51h-16.63l-5.31,2.68L364.56,268C364.78,267.97,365,267.96,365.23,267.96z"
			/>
	</g>
	<g>
		<polygon class="st0" points="480.58,451.79 396.83,287.15 373.52,287.15 457.27,451.79 		"/>
	</g>
	<g>
		<rect x="209.06" y="243.19" class="st0" width="155.54" height="24.81"/>
	</g>
	<g>
		<g>
			<polygon class="st0" points="165.94,451.79 247.73,291.03 240.1,287.15 221.68,287.15 137.93,451.79 			"/>
		</g>
		<g>
			<polygon class="st0" points="443.61,451.79 359.85,287.15 331.83,287.15 415.59,451.79 			"/>
		</g>
		<g>
			<rect x="221.91" y="287.15" class="st0" width="136.59" height="25.85"/>
		</g>
		<g>
			<rect x="276.57" y="290.78" class="st0" width="25.85" height="161.01"/>
		</g>
	</g>
</g>
</svg>
