<?xml version="1.0" encoding="utf-8"?>
<!-- Generator: Adobe Illustrator 26.0.0, SVG Export Plug-In . SVG Version: 6.00 Build 0)  -->
<svg version="1.1" id="Layer_1" xmlns="http://www.w3.org/2000/svg" xmlns:xlink="http://www.w3.org/1999/xlink" x="0px" y="0px"
	 viewBox="0 0 640 480" style="enable-background:new 0 0 640 480;" xml:space="preserve">
<style type="text/css">
	.st0{fill:#364FC7;}
	.st1{opacity:0.75;}
	.st2{fill:none;}
</style>
<g>
	<g>
		<polygon class="st0" points="163.91,396.79 342.14,46.45 282.95,46.45 104.72,396.79 		"/>
	</g>
	<g>
		<path class="st0" d="M407.23,212.96h22.61L344.36,46.45h-16.63l-5.31,2.68L406.56,213C406.78,212.97,407,212.96,407.23,212.96z"/>
	</g>
	<g>
		<polygon class="st0" points="522.58,396.79 438.83,232.15 415.52,232.15 499.27,396.79 		"/>
	</g>
	<g>
		<rect x="251.06" y="188.19" class="st0" width="155.54" height="24.81"/>
	</g>
	<g>
		<g>
			<polygon class="st0" points="207.94,396.79 289.73,236.03 282.1,232.15 263.68,232.15 179.93,396.79 			"/>
		</g>
		<g>
			<polygon class="st0" points="485.61,396.79 401.85,232.15 373.83,232.15 457.59,396.79 			"/>
		</g>
		<g>
			<rect x="263.91" y="232.15" class="st0" width="136.59" height="25.85"/>
		</g>
		<g>
			<rect x="318.57" y="235.78" class="st0" width="25.85" height="161.01"/>
		</g>
	</g>
</g>
<g class="st1">
	<g>
		<g>
			<g>
				<path class="st0" d="M413.72,160.28c7.94,7.58,14.93,16.08,20.8,25.35l2.09,3.54l1.06,1.77l0.95,1.82l1.92,3.64
					c0.6,1.23,1.15,2.49,1.74,3.74c1.24,2.46,2.14,5.07,3.22,7.61c0.51,1.28,0.91,2.6,1.38,3.9c0.45,1.31,0.95,2.59,1.3,3.93
					l1.17,3.98c0.41,1.32,0.66,2.69,1.01,4.03c0.72,2.68,1.16,5.42,1.7,8.14c0.3,1.36,0.4,2.75,0.62,4.12
					c0.17,1.38,0.45,2.75,0.53,4.13l0.38,4.16l0.1,1.04l0.04,1.04l0.08,2.09c0.31,5.57,0.08,11.15-0.33,16.71
					c-0.31,2.77-0.51,5.56-1,8.31c-0.23,1.38-0.37,2.77-0.66,4.14l-0.83,4.11c-0.23,1.38-0.63,2.72-0.97,4.08
					c-0.36,1.35-0.65,2.72-1.05,4.06c-0.86,2.65-1.56,5.37-2.59,7.97c-0.49,1.31-0.93,2.64-1.44,3.94l-1.63,3.86
					c-0.27,0.64-0.52,1.3-0.81,1.93l-0.91,1.89l-1.8,3.79c-5.17,9.92-11.5,19.26-19.02,27.68c-7.59,8.37-16.15,15.86-25.51,22.09
					l-3.57,2.25c-0.6,0.37-1.18,0.77-1.78,1.12l-1.84,1.03l-3.67,2.08l-3.78,1.87l-1.88,0.95c-0.64,0.3-1.29,0.56-1.93,0.85
					l-3.86,1.7c-1.3,0.53-2.63,1-3.94,1.51c-1.31,0.5-2.62,1.03-3.97,1.43l-4.02,1.31c-1.34,0.43-2.72,0.74-4.07,1.13
					c-2.7,0.82-5.48,1.31-8.23,1.95c-5.54,1.03-11.13,1.91-16.78,2.21c-11.27,0.85-22.63,0.07-33.72-1.98
					c-1.4-0.19-2.76-0.59-4.13-0.87c-1.37-0.33-2.76-0.56-4.11-0.96c-2.71-0.78-5.45-1.43-8.09-2.39
					c-5.38-1.66-10.54-3.9-15.65-6.23l-3.75-1.9c-0.62-0.32-1.26-0.61-1.88-0.95l-1.82-1.05l-3.66-2.07l-3.54-2.27l-1.78-1.12
					c-0.59-0.38-1.14-0.81-1.72-1.22l-3.43-2.44c-1.14-0.82-2.2-1.74-3.31-2.6c-1.08-0.89-2.24-1.69-3.27-2.66
					c-2.09-1.88-4.27-3.65-6.23-5.68l-3.02-2.95l-2.86-3.1l-1.44-1.54c-0.48-0.52-0.9-1.08-1.36-1.61l-2.7-3.23
					c-0.91-1.07-1.69-2.23-2.55-3.34l-1.26-1.67c-0.43-0.55-0.84-1.11-1.22-1.7c-1.53-2.33-3.19-4.58-4.56-7.02
					c-0.71-1.2-1.46-2.37-2.15-3.58l-1.97-3.68c-0.33-0.61-0.67-1.22-0.99-1.84l-0.88-1.89l-1.79-3.76l-1.58-3.86l-0.8-1.92
					c-0.25-0.65-0.46-1.31-0.7-1.96l-1.4-3.92c-0.43-1.32-0.8-2.66-1.21-3.99c-0.88-2.63-1.42-5.37-2.13-8.04
					c-1.13-5.43-2.16-10.89-2.6-16.42c-1.13-11.03-0.63-22.17,1.07-33.04c-1.1,10.94-1.02,22.01,0.62,32.82
					c0.69,5.43,1.96,10.75,3.3,16.02c0.83,2.59,1.46,5.24,2.43,7.78c0.46,1.28,0.87,2.57,1.34,3.84l1.53,3.77l0.76,1.88l0.86,1.84
					l1.69,3.69l1.89,3.59l0.93,1.8c0.32,0.59,0.69,1.16,1.02,1.75l2.04,3.5c0.7,1.15,1.48,2.26,2.21,3.39
					c1.4,2.3,3.09,4.42,4.64,6.63l0.59,0.82l0.64,0.78l1.28,1.57c0.86,1.04,1.65,2.13,2.56,3.14l2.7,3.02
					c0.45,0.5,0.88,1.02,1.35,1.51l1.43,1.44l2.84,2.9l2.99,2.75c1.94,1.9,4.08,3.54,6.13,5.28c1.01,0.9,2.13,1.64,3.2,2.46
					c1.08,0.79,2.13,1.64,3.23,2.41l3.34,2.25c0.56,0.37,1.1,0.77,1.67,1.13l1.72,1.03l3.43,2.09l3.54,1.9l1.76,0.96
					c0.59,0.32,1.21,0.58,1.81,0.87l3.61,1.74c4.91,2.11,9.86,4.15,14.99,5.65c2.53,0.87,5.14,1.45,7.72,2.15
					c1.28,0.37,2.62,0.56,3.92,0.86l1.96,0.42l0.98,0.21l0.99,0.15c10.54,1.79,21.31,2.45,31.98,1.56
					c5.34-0.32,10.62-1.19,15.87-2.16c2.59-0.62,5.23-1.08,7.78-1.86c1.28-0.37,2.58-0.67,3.85-1.06l3.8-1.24
					c1.28-0.37,2.52-0.86,3.76-1.34l3.73-1.42l3.65-1.6l1.83-0.79l1.78-0.89l3.58-1.76l3.48-1.95l1.75-0.96
					c0.58-0.33,1.13-0.7,1.69-1.05l3.39-2.1c8.9-5.82,17.08-12.84,24.41-20.69c7.26-7.89,13.42-16.66,18.55-26
					c2.4-4.75,4.81-9.53,6.63-14.55c1.05-2.46,1.78-5.04,2.67-7.56c0.43-1.27,0.73-2.57,1.11-3.86c0.35-1.29,0.78-2.56,1.04-3.88
					l0.91-3.92c0.33-1.3,0.49-2.64,0.75-3.95c0.56-2.63,0.83-5.3,1.21-7.96c0.22-1.33,0.24-2.68,0.38-4.01
					c0.09-1.34,0.3-2.68,0.3-4.02l0.16-4.03l0.05-1.01l-0.02-1.01l-0.02-2.02c0.03-5.39-0.47-10.77-1.11-16.12
					c-0.43-2.66-0.74-5.35-1.35-7.97c-0.29-1.32-0.48-2.66-0.82-3.96l-0.98-3.92c-0.28-1.32-0.72-2.6-1.11-3.89
					c-0.41-1.29-0.74-2.6-1.18-3.87c-0.95-2.52-1.72-5.12-2.82-7.58l-1.54-3.75l-1.73-3.66l-0.85-1.84l-0.96-1.79l-1.89-3.59
					C427.73,177.09,421.23,168.3,413.72,160.28z"/>
			</g>
			<g>
				<path class="st0" d="M458.56,204.28l1.51,4.31c0.25,0.72,0.53,1.43,0.75,2.16l0.65,2.19l1.3,4.39l1.08,4.45l0.54,2.23l0.43,2.25
					l0.88,4.51l0.65,4.55l0.33,2.28l0.21,2.29l0.44,4.58l0.21,4.6l0.11,2.3l0,2.3l0,4.61l-0.23,4.61l-0.11,2.31
					c-0.05,0.77-0.15,1.53-0.22,2.3l-0.45,4.6c-0.19,1.53-0.45,3.05-0.67,4.57c-1.78,12.21-5.38,24.14-10.24,35.51
					c-4.92,11.36-11.42,22.03-19.06,31.85c-7.75,9.74-16.78,18.56-26.69,26.14c-9.98,7.49-20.9,13.73-32.46,18.51
					c-2.93,1.08-5.8,2.34-8.8,3.24c-1.49,0.48-2.97,1-4.46,1.46l-4.53,1.25c-0.76,0.2-1.5,0.43-2.27,0.62l-2.29,0.51l-4.59,1.03
					l-4.63,0.8l-2.32,0.4l-2.33,0.29l-4.67,0.59l-4.69,0.35l-2.35,0.18l-2.35,0.06l-4.71,0.13l-4.71-0.1l-2.35-0.04l-2.35-0.16
					l-4.7-0.32l-4.68-0.55l-2.34-0.27c-0.78-0.11-1.55-0.26-2.32-0.38l-4.64-0.77c-1.54-0.31-3.07-0.67-4.6-0.99l-2.3-0.5
					c-0.77-0.17-1.52-0.4-2.27-0.6l-4.54-1.22c-1.51-0.44-2.99-0.96-4.48-1.43c-3.01-0.89-5.9-2.12-8.85-3.19
					c-11.63-4.69-22.62-10.89-32.7-18.33c-10-7.54-19.13-16.34-27.01-26.08c-7.76-9.83-14.37-20.53-19.42-31.94
					c-4.97-11.43-8.69-23.44-10.57-35.76c-0.23-1.54-0.49-3.07-0.7-4.62l-0.49-4.64c-0.08-0.77-0.18-1.55-0.24-2.32l-0.13-2.33
					l-0.26-4.66l-0.04-4.66l-0.02-2.33l0.1-2.33l0.18-4.65l0.41-4.64l0.2-2.32l0.32-2.3l0.63-4.61l0.86-4.57l0.42-2.28l0.54-2.26
					l1.07-4.51l1.29-4.45l0.64-2.22c0.22-0.74,0.5-1.46,0.74-2.19l1.5-4.37c2.23-5.74,4.58-11.44,7.52-16.84
					c1.35-2.76,2.98-5.37,4.51-8.02c0.73-1.35,1.66-2.58,2.48-3.87c0.86-1.27,1.64-2.59,2.55-3.82c-0.85,1.27-1.56,2.63-2.36,3.94
					c-0.75,1.33-1.61,2.6-2.28,3.98c-1.4,2.72-2.9,5.38-4.11,8.18c-2.66,5.49-4.74,11.24-6.7,17l-1.3,4.38
					c-0.21,0.73-0.45,1.45-0.64,2.19l-0.54,2.22l-1.09,4.43l-0.87,4.48l-0.44,2.24l-0.32,2.26l-0.67,4.51l-0.44,4.53l-0.23,2.26
					l-0.11,2.27l-0.24,4.54l-0.02,4.55l-0.02,2.27c0.02,0.76,0.07,1.51,0.1,2.27l0.19,4.54l0.4,4.52l0.2,2.26
					c0.07,0.75,0.2,1.5,0.3,2.25l0.62,4.49c0.25,1.49,0.56,2.97,0.82,4.46c2.19,11.88,6.1,23.37,11.15,34.25
					c5.11,10.87,11.69,20.99,19.28,30.27c7.71,9.2,16.58,17.48,26.19,24.56c9.7,6.99,20.22,12.78,31.3,17.2
					c2.81,0.99,5.56,2.17,8.43,2.99c1.42,0.44,2.84,0.93,4.27,1.35l4.33,1.15c0.72,0.19,1.44,0.4,2.16,0.57l2.19,0.47l4.38,0.94
					l4.42,0.73l2.21,0.37l2.23,0.26l4.45,0.53l4.47,0.31l2.23,0.17l2.24,0.04l4.48,0.11l4.48-0.11l2.24-0.05l2.23-0.16l4.47-0.31
					l4.45-0.53l2.23-0.26c0.74-0.11,1.47-0.25,2.21-0.37l4.42-0.73l4.38-0.94l2.19-0.47c0.73-0.16,1.44-0.38,2.16-0.57l4.33-1.15
					c1.43-0.41,2.84-0.9,4.27-1.34c2.87-0.83,5.62-1.99,8.43-2.99c11.08-4.4,21.6-10.2,31.3-17.19
					c9.62-7.08,18.48-15.36,26.19-24.55c7.59-9.28,14.16-19.4,19.28-30.26c5.04-10.88,8.96-22.36,11.15-34.24
					c0.27-1.48,0.57-2.96,0.82-4.45l0.61-4.49c0.1-0.75,0.22-1.5,0.3-2.25l0.2-2.26l0.41-4.52l0.19-4.54l0.1-2.27l-0.02-2.27
					l-0.02-4.55l-0.24-4.54l-0.11-2.27l-0.23-2.26l-0.44-4.53l-0.67-4.5l-0.33-2.26l-0.44-2.23l-0.87-4.47l-1.09-4.43l-0.54-2.22
					c-0.18-0.74-0.43-1.46-0.64-2.19L458.56,204.28z"/>
			</g>
			<g>
				<path class="st0" d="M483.27,243.17c0.41,6.79,0.65,13.62,0.2,20.44c-0.09,3.42-0.53,6.81-0.84,10.21
					c-0.16,1.7-0.48,3.38-0.7,5.08c-0.26,1.69-0.45,3.4-0.82,5.07c-2.51,13.46-6.59,26.68-12.5,39.12
					c-2.82,6.28-6.32,12.23-9.9,18.12c-3.82,5.74-7.75,11.43-12.26,16.68c-4.36,5.37-9.26,10.29-14.25,15.11
					c-5.16,4.62-10.43,9.15-16.13,13.12c-5.6,4.11-11.58,7.66-17.66,11.03l-4.65,2.36c-0.78,0.39-1.54,0.8-2.33,1.17l-2.38,1.06
					l-4.77,2.13l-4.87,1.89l-2.43,0.95l-2.48,0.83l-4.96,1.65l-5.03,1.41l-2.52,0.7c-0.84,0.22-1.7,0.39-2.54,0.59l-5.1,1.16
					c-1.71,0.34-3.43,0.62-5.15,0.93c-3.42,0.69-6.9,0.99-10.36,1.47c-6.95,0.63-13.93,1.09-20.91,0.84
					c-3.5,0.01-6.98-0.33-10.46-0.53c-1.74-0.12-3.47-0.38-5.21-0.56c-1.73-0.21-3.48-0.36-5.2-0.68l-5.17-0.85
					c-1.73-0.28-3.42-0.71-5.13-1.06c-3.44-0.66-6.79-1.64-10.17-2.53c-1.7-0.42-3.34-1.04-5.01-1.54c-1.66-0.56-3.35-1-4.97-1.66
					c-3.27-1.23-6.57-2.4-9.75-3.86c-6.46-2.69-12.63-6.01-18.69-9.49l-4.45-2.78l-2.22-1.4l-2.15-1.5l-4.3-3l-4.15-3.21
					c-2.82-2.08-5.39-4.46-8.06-6.72c-0.67-0.56-1.31-1.15-1.94-1.77l-1.9-1.81c-1.25-1.22-2.56-2.39-3.77-3.65l-3.6-3.81l-1.8-1.91
					l-1.7-2l-3.4-3.99c-1.1-1.36-2.14-2.77-3.21-4.15c-17.06-22.18-27.93-48.88-31.75-76.47c-3.68-27.61-0.4-56.12,9.9-81.82
					c1.2-3.25,2.68-6.37,4.1-9.52c0.67-1.59,1.54-3.09,2.31-4.64c0.81-1.52,1.53-3.09,2.41-4.58c1.76-2.97,3.38-6.02,5.33-8.86
					c0.95-1.44,1.86-2.9,2.83-4.33l3.03-4.19c8.1-11.14,17.8-21.06,28.41-29.73c-10.21,9.12-19.43,19.37-27.01,30.69l-2.83,4.25
					c-0.9,1.44-1.75,2.92-2.63,4.37c-1.81,2.88-3.31,5.94-4.93,8.92c-0.81,1.49-1.47,3.06-2.21,4.59c-0.7,1.55-1.5,3.04-2.11,4.63
					c-1.28,3.14-2.64,6.25-3.71,9.47c-9.26,25.5-11.64,53.27-7.52,79.87c4.28,26.59,15.15,52.03,31.71,73.11
					c1.04,1.31,2.06,2.64,3.11,3.94l3.3,3.79l1.65,1.9c0.56,0.62,1.16,1.21,1.74,1.82l3.49,3.63c1.16,1.21,2.43,2.31,3.64,3.47
					c1.24,1.13,2.4,2.34,3.7,3.41c2.58,2.14,5.04,4.42,7.75,6.39l3.98,3.05l4.13,2.85l2.06,1.43c0.7,0.46,1.42,0.89,2.13,1.33
					l4.26,2.65c5.8,3.32,11.7,6.49,17.87,9.06c24.51,10.71,51.79,14.83,78.45,12.39l4.99-0.58c0.83-0.1,1.67-0.17,2.49-0.3
					l2.48-0.41c1.65-0.28,3.31-0.52,4.95-0.82l4.91-1.05c0.82-0.18,1.64-0.34,2.45-0.53l2.43-0.64l4.86-1.28l4.79-1.51l2.4-0.75
					l2.35-0.87l4.71-1.74l4.62-1.96l2.31-0.98c0.77-0.33,1.51-0.72,2.27-1.08l4.52-2.19c5.92-3.13,11.77-6.43,17.27-10.29
					c5.6-3.7,10.8-7.98,15.93-12.33c4.95-4.55,9.84-9.2,14.23-14.31c4.54-4.98,8.53-10.42,12.43-15.91
					c3.68-5.64,7.28-11.36,10.25-17.42c6.2-11.99,10.7-24.86,13.69-38.08c0.43-1.64,0.68-3.32,1.01-4.98
					c0.29-1.67,0.67-3.33,0.9-5.01c0.44-3.36,1.01-6.72,1.24-10.11C483.32,256.79,483.38,249.98,483.27,243.17z"/>
			</g>
			<g>
				<path class="st0" d="M485.13,323.85l-1.07,2.61l-1.19,2.56l-2.4,5.12c-0.86,1.68-1.76,3.33-2.64,5
					c-0.88,1.67-1.75,3.34-2.75,4.94l-2.91,4.86c-0.97,1.62-2.07,3.16-3.1,4.74l-1.58,2.36l-0.79,1.18l-0.84,1.14l-3.39,4.55
					c-1.1,1.54-2.34,2.97-3.54,4.43c-1.21,1.45-2.4,2.93-3.63,4.36l-3.84,4.19l-1.92,2.09c-0.65,0.69-1.34,1.34-2.01,2.01
					l-4.05,3.99c-1.34,1.34-2.81,2.54-4.21,3.82c-1.43,1.24-2.8,2.56-4.3,3.74l-4.45,3.56c-1.46,1.22-3.01,2.32-4.56,3.43
					l-4.64,3.33l-4.79,3.1l-2.4,1.55l-2.47,1.44l-4.95,2.86c-1.67,0.91-3.38,1.75-5.08,2.63c-3.36,1.81-6.89,3.28-10.36,4.87
					c-7.05,2.93-14.23,5.61-21.61,7.61c-7.34,2.15-14.86,3.65-22.43,4.84c-15.15,2.18-30.61,2.63-45.88,0.9
					c-7.65-0.73-15.21-2.2-22.71-3.9c-3.71-1.01-7.47-1.85-11.12-3.08c-1.83-0.58-3.68-1.14-5.5-1.76l-5.42-2l-2.7-1.01l-2.66-1.13
					l-5.31-2.27l-5.2-2.53l-2.6-1.27c-0.86-0.44-1.69-0.92-2.54-1.38l-5.06-2.79c-1.67-0.96-3.29-2.01-4.93-3.01
					c-3.32-1.96-6.44-4.24-9.62-6.41c-0.8-0.54-1.58-1.11-2.33-1.71l-2.29-1.76c-1.51-1.19-3.09-2.31-4.55-3.57l-4.4-3.75
					c-0.73-0.63-1.48-1.24-2.18-1.89l-2.1-1.98l-4.2-3.97c-1.35-1.37-2.67-2.78-4-4.17c-2.72-2.73-5.16-5.72-7.69-8.63
					c-1.29-1.43-2.41-3.01-3.61-4.52c-1.17-1.53-2.39-3.03-3.51-4.6l-3.31-4.75c-0.54-0.8-1.12-1.57-1.64-2.39l-1.54-2.45
					l-3.06-4.91l-2.82-5.06l-1.41-2.53c-0.45-0.85-0.86-1.73-1.3-2.59l-2.56-5.19c-3.16-7.04-6.12-14.18-8.37-21.57
					c-1.25-3.65-2.16-7.4-3.17-11.12c-0.52-1.86-0.85-3.76-1.28-5.64c-0.38-1.89-0.87-3.76-1.14-5.67
					c-2.69-15.18-3.59-30.68-2.34-46.03c0.51-7.68,1.71-15.3,3.19-22.84c0.87-3.75,1.62-7.52,2.73-11.21c0.53-1.85,1-3.71,1.59-5.54
					l1.81-5.47c0.57-1.83,1.28-3.62,1.98-5.41c0.7-1.79,1.37-3.59,2.11-5.36l2.34-5.26c0.4-0.87,0.77-1.76,1.19-2.62l1.3-2.57
					l2.6-5.13l2.85-5l1.43-2.5c0.49-0.82,1.02-1.62,1.54-2.43l3.1-4.84c8.56-12.72,18.76-24.27,30.13-34.45
					c11.43-10.12,24.17-18.72,37.71-25.67c6.85-3.31,13.77-6.48,20.97-8.91c3.55-1.35,7.21-2.35,10.83-3.47
					c1.81-0.55,3.67-0.95,5.5-1.43c1.84-0.45,3.66-0.96,5.53-1.29c-1.85,0.41-3.65,0.99-5.47,1.51c-1.81,0.55-3.64,1.02-5.43,1.64
					c-3.56,1.26-7.17,2.38-10.65,3.86c-7.06,2.68-13.82,6.08-20.47,9.59c-13.15,7.35-25.42,16.22-36.35,26.49
					c-10.87,10.32-20.52,21.89-28.57,34.5l-2.91,4.79c-0.48,0.8-0.98,1.59-1.44,2.4l-1.33,2.46l-2.66,4.93l-2.42,5.05l-1.21,2.52
					c-0.39,0.85-0.73,1.72-1.1,2.57l-2.16,5.16c-0.69,1.73-1.29,3.5-1.94,5.25c-0.64,1.75-1.3,3.49-1.82,5.29l-1.65,5.34
					c-0.54,1.78-0.95,3.6-1.44,5.4c-1.01,3.59-1.67,7.25-2.45,10.89c-1.31,7.32-2.36,14.7-2.74,22.13
					c-0.31,3.71-0.3,7.42-0.36,11.14c-0.03,0.93-0.02,1.86,0.02,2.78l0.09,2.78l0.09,2.78c0.02,0.93,0.07,1.86,0.15,2.78
					c0.3,3.7,0.53,7.41,1.07,11.08c0.26,1.84,0.41,3.69,0.76,5.51l0.96,5.48c0.28,1.83,0.76,3.63,1.15,5.44
					c0.43,1.8,0.77,3.63,1.27,5.42c1,3.57,1.9,7.17,3.13,10.67c2.2,7.09,5.1,13.93,8.15,20.68l2.48,4.98l1.25,2.48l1.36,2.42
					l2.72,4.85l2.95,4.71l1.48,2.35c0.49,0.78,1.05,1.52,1.57,2.29l3.19,4.55c1.07,1.51,2.25,2.94,3.37,4.41l1.7,2.19l0.85,1.1
					l0.91,1.05c2.43,2.79,4.77,5.67,7.38,8.3l3.84,4.02l4.02,3.83l2.01,1.91c0.67,0.64,1.39,1.22,2.09,1.83l4.21,3.62
					c1.39,1.22,2.91,2.29,4.35,3.45c1.48,1.11,2.89,2.32,4.43,3.36c3.05,2.1,6.02,4.32,9.21,6.22c1.57,0.98,3.13,1.99,4.72,2.93
					l4.85,2.72l2.43,1.35l2.49,1.24l4.98,2.48l5.09,2.24l2.55,1.12c0.85,0.36,1.73,0.67,2.59,1l5.19,1.98
					c1.75,0.62,3.52,1.17,5.28,1.75c3.5,1.23,7.11,2.09,10.68,3.1c7.21,1.73,14.48,3.25,21.86,4.07c14.72,1.9,29.68,1.74,44.43-0.07
					c1.85-0.17,3.67-0.55,5.51-0.82l2.75-0.44l1.38-0.22l1.36-0.28c3.64-0.76,7.29-1.47,10.88-2.47c7.23-1.78,14.28-4.23,21.23-6.9
					c3.42-1.47,6.91-2.8,10.24-4.49c1.68-0.81,3.37-1.59,5.03-2.44l4.92-2.66l2.46-1.34l2.39-1.45l4.79-2.91l4.64-3.13
					c1.55-1.05,3.11-2.08,4.58-3.23l4.48-3.37c1.51-1.11,2.89-2.37,4.34-3.54c1.42-1.21,2.91-2.36,4.27-3.63l4.12-3.8
					c0.68-0.64,1.39-1.26,2.05-1.92l1.96-2l3.93-4.01c1.27-1.38,2.49-2.79,3.74-4.19c1.24-1.41,2.52-2.78,3.66-4.27l3.52-4.39
					l0.88-1.1l0.82-1.14l1.65-2.28c1.08-1.53,2.24-3.02,3.26-4.59l3.07-4.72c1.05-1.56,1.99-3.19,2.93-4.82
					c0.94-1.63,1.9-3.24,2.82-4.88l2.59-5.01l1.3-2.51L485.13,323.85z"/>
			</g>
			<g>
				<path class="st0" d="M421.35,419.63l-5.34,3.12l-2.68,1.55l-2.74,1.43l-5.51,2.85c-1.86,0.89-3.75,1.73-5.63,2.6
					c-3.73,1.79-7.62,3.2-11.46,4.75c-1.93,0.74-3.91,1.37-5.86,2.05c-1.96,0.66-3.91,1.37-5.91,1.91l-5.97,1.72
					c-1.99,0.58-4.02,0.99-6.04,1.49c-4.02,1.03-8.11,1.72-12.19,2.47c-8.19,1.31-16.46,2.27-24.77,2.52
					c-8.31,0.4-16.64,0.07-24.94-0.6c-4.14-0.44-8.3-0.81-12.41-1.53c-2.06-0.34-4.13-0.6-6.17-1.02l-6.13-1.26
					c-2.05-0.39-4.07-0.95-6.09-1.46c-2.02-0.54-4.06-1.01-6.06-1.61c-3.99-1.26-8.02-2.38-11.93-3.89
					c-1.96-0.72-3.94-1.41-5.89-2.18l-5.79-2.44c-0.96-0.41-1.93-0.81-2.89-1.24l-2.84-1.36l-5.66-2.74
					c-14.89-7.73-28.87-17.29-41.37-28.47c-12.43-11.23-23.57-23.98-32.91-38.01c-18.6-28.11-29.93-61.09-32.21-94.73
					c-1.28-16.81-0.23-33.77,2.79-50.35c0.32-2.08,0.84-4.13,1.27-6.19c0.48-2.05,0.86-4.13,1.42-6.16
					c1.11-4.07,2.14-8.16,3.52-12.15c2.5-8.06,5.76-15.87,9.25-23.54l2.82-5.67c0.48-0.94,0.93-1.89,1.43-2.82l1.55-2.76l3.11-5.51
					l3.37-5.36l1.69-2.67c0.57-0.88,1.2-1.73,1.8-2.6l3.64-5.17c1.23-1.71,2.57-3.34,3.85-5.01c1.32-1.64,2.55-3.35,3.96-4.91
					c2.76-3.17,5.45-6.41,8.42-9.38c1.46-1.51,2.9-3.03,4.38-4.52l4.59-4.31l2.3-2.15c0.77-0.71,1.59-1.37,2.38-2.06l4.81-4.07
					c1.6-1.36,3.32-2.58,4.97-3.87l2.51-1.91c0.83-0.64,1.67-1.27,2.55-1.85c27.41-19.5,59.86-31.81,93.1-35.16
					c16.61-1.82,33.4-1.3,49.86,1.13c2.07,0.25,4.1,0.71,6.15,1.06l3.07,0.57l1.53,0.29l1.52,0.35c4.05,0.95,8.11,1.85,12.08,3.06
					c8.01,2.2,15.8,5.13,23.45,8.33c-7.76-2.92-15.62-5.56-23.67-7.48c-3.99-1.07-8.06-1.83-12.1-2.64l-1.52-0.3l-1.53-0.24
					l-3.06-0.46c-2.04-0.28-4.07-0.67-6.13-0.85c-16.38-1.88-32.95-1.91-49.23,0.33c-32.59,4.18-63.95,16.95-90.26,36.36l-1.25,0.89
					l-1.2,0.95l-2.4,1.9c-1.59,1.28-3.23,2.5-4.77,3.84l-4.61,4.03c-0.76,0.68-1.54,1.33-2.29,2.03l-2.2,2.12l-4.38,4.25
					c-1.42,1.46-2.79,2.96-4.19,4.45c-2.84,2.92-5.4,6.09-8.04,9.2c-1.34,1.53-2.52,3.2-3.78,4.81c-1.22,1.63-2.5,3.22-3.67,4.89
					l-3.46,5.04c-0.57,0.84-1.16,1.67-1.71,2.53l-1.61,2.6l-3.2,5.21l-2.95,5.35l-1.47,2.68c-0.48,0.9-0.9,1.83-1.36,2.74l-2.67,5.5
					c-3.32,7.44-6.4,14.99-8.76,22.78c-1.3,3.86-2.28,7.81-3.32,11.74c-0.55,1.96-0.89,3.97-1.35,5.95c-0.4,1.99-0.91,3.96-1.2,5.98
					c-2.84,16-3.84,32.34-2.61,48.55c2.18,32.42,12.92,64.22,30.61,91.54c8.88,13.64,19.51,26.09,31.4,37.16
					c11.96,11.02,25.37,20.5,39.71,28.3l5.46,2.77l2.74,1.37c0.92,0.45,1.86,0.84,2.79,1.26l5.6,2.49c1.88,0.79,3.8,1.5,5.7,2.25
					c3.78,1.55,7.69,2.73,11.56,4.04c1.94,0.64,3.92,1.13,5.88,1.7c1.97,0.54,3.92,1.14,5.92,1.56l5.97,1.37
					c1.99,0.47,4.01,0.76,6.02,1.14c4.01,0.8,8.07,1.26,12.13,1.8c2.02,0.29,4.07,0.38,6.1,0.58c2.04,0.14,4.07,0.4,6.12,0.43
					l6.13,0.22l1.53,0.05l1.53-0.01l3.07-0.03c8.19-0.02,16.36-0.74,24.49-1.78c4.05-0.63,8.12-1.19,12.13-2.08
					c2.01-0.43,4.03-0.78,6.02-1.28l5.97-1.52c2-0.47,3.96-1.11,5.92-1.7c1.96-0.62,3.94-1.17,5.89-1.85
					c3.86-1.42,7.78-2.69,11.56-4.34c1.9-0.8,3.81-1.57,5.7-2.39l5.59-2.64l2.79-1.33l2.73-1.46L421.35,419.63z"/>
			</g>
			<g>
				<path class="st0" d="M351.3,461.52c-17.7,2.67-35.77,3.29-53.66,1.39c-8.96-0.81-17.84-2.45-26.65-4.39
					c-4.37-1.13-8.78-2.12-13.08-3.52c-2.16-0.67-4.33-1.31-6.47-2.02l-6.38-2.3c-1.06-0.39-2.13-0.77-3.18-1.18l-3.14-1.3
					l-6.26-2.64l-6.14-2.92l-3.06-1.48c-1.01-0.51-2-1.06-3-1.6l-5.98-3.25c-1.97-1.12-3.89-2.33-5.84-3.5
					c-3.92-2.3-7.63-4.92-11.38-7.47l-1.4-0.96l-1.36-1.02l-2.72-2.05c-1.8-1.38-3.65-2.71-5.39-4.16l-5.21-4.37
					c-0.86-0.74-1.74-1.45-2.58-2.21l-2.49-2.31l-4.97-4.64c-1.61-1.59-3.17-3.23-4.76-4.85c-3.21-3.2-6.15-6.67-9.14-10.09
					c-1.52-1.69-2.88-3.52-4.31-5.29c-1.4-1.79-2.84-3.56-4.19-5.39l-3.96-5.57c-0.65-0.93-1.32-1.86-1.96-2.8l-1.85-2.88
					l-3.66-5.78l-3.4-5.94l-1.68-2.98c-0.55-1-1.05-2.03-1.57-3.04l-3.08-6.12c-3.84-8.28-7.39-16.73-10.15-25.44
					c-1.5-4.32-2.66-8.74-3.87-13.14c-0.63-2.2-1.05-4.44-1.58-6.66l-0.74-3.34l-0.37-1.67l-0.3-1.69
					c-3.36-17.95-4.6-36.31-3.31-54.55c0.52-9.13,1.85-18.19,3.53-27.18c0.97-4.47,1.85-8.96,3.11-13.37
					c0.6-2.21,1.16-4.43,1.83-6.62l2.09-6.54c0.67-2.19,1.48-4.34,2.29-6.48c0.81-2.14,1.6-4.29,2.45-6.42l2.73-6.31l1.39-3.15
					l1.51-3.09l3.06-6.16l3.34-6.01l1.69-3c0.57-0.99,1.2-1.95,1.8-2.93l3.65-5.82c10.07-15.33,22.11-29.26,35.56-41.55
					C190.62,79.5,205.81,69,222.01,60.47c8.18-4.1,16.49-7.97,25.12-11.02c4.26-1.66,8.65-2.94,13.01-4.32
					c2.18-0.67,4.4-1.2,6.61-1.8c2.21-0.57,4.41-1.19,6.65-1.63l6.69-1.41c2.23-0.48,4.49-0.77,6.74-1.16
					c4.49-0.8,9.02-1.25,13.55-1.74c2.26-0.27,4.54-0.34,6.81-0.51c2.27-0.12,4.54-0.34,6.81-0.34l6.82-0.1l1.7-0.02l1.7,0.05
					l3.41,0.11c9.09,0.22,18.14,1.22,27.12,2.6c4.47,0.8,8.95,1.54,13.37,2.63c2.21,0.53,4.43,0.98,6.62,1.59l6.56,1.84
					c2.19,0.58,4.34,1.34,6.49,2.05c2.15,0.74,4.31,1.41,6.44,2.22c4.22,1.67,8.49,3.21,12.6,5.14c2.07,0.93,4.14,1.85,6.19,2.82
					l6.06,3.08l3.02,1.56l2.95,1.68l5.88,3.4c15.45,9.45,29.66,20.85,42.19,33.68c-12.95-12.4-27.44-23.28-43.03-32.2l-5.93-3.2
					l-2.97-1.58l-3.03-1.46l-6.08-2.88c-2.05-0.91-4.13-1.75-6.19-2.62c-4.11-1.8-8.37-3.2-12.57-4.74
					c-2.11-0.74-4.27-1.35-6.4-2.02c-2.14-0.65-4.27-1.34-6.44-1.86l-6.5-1.65c-2.16-0.56-4.37-0.94-6.55-1.41
					c-4.36-0.97-8.78-1.59-13.19-2.27c-2.2-0.37-4.43-0.53-6.64-0.79c-2.22-0.21-4.43-0.53-6.65-0.63l-6.67-0.4l-1.67-0.09
					l-1.67-0.03l-3.34-0.05c-8.9-0.19-17.8,0.38-26.64,1.31c-4.41,0.57-8.83,1.08-13.19,1.94c-2.18,0.41-4.38,0.74-6.55,1.24
					l-6.5,1.49c-2.17,0.46-4.31,1.1-6.45,1.69c-2.14,0.61-4.29,1.17-6.4,1.85c-4.21,1.42-8.47,2.71-12.59,4.39
					c-2.07,0.81-4.15,1.59-6.2,2.44l-6.1,2.7c-1.01,0.46-2.03,0.9-3.04,1.37l-2.98,1.49l-5.95,3.01
					c-15.62,8.47-30.23,18.8-43.25,30.77c-12.94,12.01-24.5,25.55-34.19,40.4l-3.51,5.64c-0.58,0.95-1.17,1.88-1.73,2.84l-1.62,2.9
					l-3.21,5.82l-2.94,5.96l-1.46,2.99c-0.47,1-0.89,2.03-1.34,3.04l-2.63,6.1c-0.83,2.05-1.58,4.14-2.37,6.21
					c-0.78,2.07-1.57,4.14-2.22,6.26l-2.03,6.32c-0.66,2.11-1.18,4.26-1.77,6.39c-1.22,4.26-2.08,8.6-3.03,12.92
					c-1.65,8.68-2.96,17.45-3.51,26.27c-1.34,17.63-0.26,35.41,2.84,52.83c0.33,2.19,0.87,4.34,1.31,6.51
					c0.49,2.16,0.88,4.34,1.47,6.47c1.14,4.28,2.2,8.58,3.62,12.78c2.58,8.48,5.93,16.71,9.55,24.81l2.91,5.98
					c0.49,0.99,0.97,2,1.48,2.98l1.6,2.92l3.22,5.83l3.48,5.67l1.75,2.83c0.59,0.94,1.24,1.84,1.86,2.76l3.77,5.48
					c1.28,1.82,2.66,3.55,3.99,5.32c1.37,1.75,2.65,3.56,4.11,5.23c2.87,3.38,5.66,6.82,8.74,10c1.51,1.61,3.02,3.24,4.55,4.83
					l4.77,4.62l2.39,2.3c0.8,0.76,1.66,1.47,2.48,2.21l5.01,4.38c1.67,1.46,3.46,2.79,5.19,4.18l2.62,2.06
					c0.87,0.69,1.75,1.37,2.66,2c3.63,2.57,7.2,5.23,11,7.56c1.88,1.19,3.74,2.42,5.65,3.56l5.8,3.32c0.97,0.55,1.93,1.11,2.91,1.64
					l2.98,1.52l5.97,3.02l6.1,2.74l3.06,1.36c1.03,0.43,2.07,0.83,3.11,1.24l6.24,2.43c2.1,0.76,4.22,1.44,6.33,2.16
					c4.21,1.5,8.53,2.59,12.82,3.82c8.65,2.16,17.4,4.03,26.26,5.1C315.5,463.63,333.51,463.59,351.3,461.52z"/>
			</g>
			<g>
				<line class="st2" x1="457.31" y1="388.87" x2="457.31" y2="388.87"/>
			</g>
		</g>
	</g>
</g>
</svg>
